{
  "accessors": [
    {
      "bufferView": 2,
      "componentType": 5126,
      "count": 10576,
      "max": [
        289.68841552734375,
        188.1796875,
        -14.54024887084961
      ],
      "min": [
        -299.1488037109375,
        -137.88389587402344,
        -1898.4375
      ],
      "type": "VEC3"
    },
    {
      "bufferView": 2,
      "byteOffset": 126912,
      "componentType": 5126,
      "count": 10576,
      "max": [
        0.9999992847442627,
        0.9999892711639404,
        0.9999328851699829
      ],
      "min": [
        -0.9999837875366211,
        -0.9999231100082397,
        -0.9995351433753967
      ],
      "type": "VEC3"
    },
    {
      "bufferView": 0,
      "componentType": 5125,
      "count": 62526,
      "type": "SCALAR"
    },
    {
      "bufferView": 2,
      "byteOffset": 253824,
      "componentType": 5126,
      "count": 5101,
      "max": [
        185.92550659179688,
        206.9861602783203,
        -0.6084216833114624
      ],
      "min": [
        50.074764251708984,
        -93.91371154785156,
        -130.18798828125
      ],
      "type": "VEC3"
    },
    {
      "bufferView": 2,
      "byteOffset": 315036,
      "componentType": 5126,
      "count": 5101,
      "max": [
        0.9971684813499451,
        0.9996243119239807,
        0.9999996423721313
      ],
      "min": [
        -0.999975323677063,
        -0.9998605251312256,
        -0.9996621012687683
      ],
      "type": "VEC3"
    },
    {
      "bufferView": 1,
      "componentType": 5126,
      "count": 5101,
      "max": [
        0.9965500235557556,
        0.9980499744415283
      ],
      "min": [
        0.0019499999471008778,
        0.00195997953414917
      ],
      "type": "VEC2"
    },
    {
      "bufferView": 0,
      "byteOffset": 250104,
      "componentType": 5125,
      "count": 27444,
      "type": "SCALAR"
    },
    {
      "bufferView": 2,
      "byteOffset": 376248,
      "componentType": 5126,
      "count": 5095,
      "max": [
        -49.72277069091797,
        207.1353759765625,
        -0.6013072729110718
      ],
      "min": [
        -186.2198028564453,
        -93.69651794433594,
        -130.13784790039063
      ],
      "type": "VEC3"
    },
    {
      "bufferView": 2,
      "byteOffset": 437388,
      "componentType": 5126,
      "count": 5095,
      "max": [
        0.9999430179595947,
        0.9997289776802063,
        0.9999997615814209
      ],
      "min": [
        -0.999179482460022,
        -0.9993274211883545,
        -0.9999887943267822
      ],
      "type": "VEC3"
    },
    {
      "bufferView": 1,
      "byteOffset": 40808,
      "componentType": 5126,
      "count": 5095,
      "max": [
        0.9965500235557556,
        0.9980499744415283
      ],
      "min": [
        0.0019499999471008778,
        0.00195997953414917
      ],
      "type": "VEC2"
    },
    {
      "bufferView": 0,
      "byteOffset": 359880,
      "componentType": 5125,
      "count": 27444,
      "type": "SCALAR"
    },
    {
      "bufferView": 2,
      "byteOffset": 498528,
      "componentType": 5126,
      "count": 18799,
      "max": [
        329.3695068359375,
        167.52316284179688,
        -49.73784637451172
      ],
      "min": [
        -306.3199768066406,
        -175.76353454589844,
        -1633.0225830078125
      ],
      "type": "VEC3"
    },
    {
      "bufferView": 2,
      "byteOffset": 724116,
      "componentType": 5126,
      "count": 18799,
      "max": [
        0.9999921321868896,
        0.9999818801879883,
        0.9332436323165894
      ],
      "min": [
        -0.9999479055404663,
        -0.9999951124191284,
        -0.942206084728241
      ],
      "type": "VEC3"
    },
    {
      "bufferView": 1,
      "byteOffset": 81568,
      "componentType": 5126,
      "count": 18799,
      "max": [
        0.9859260320663452,
        0.9833135008811951
      ],
      "min": [
        0.01926558092236519,
        0.02265632152557373
      ],
      "type": "VEC2"
    },
    {
      "bufferView": 0,
      "byteOffset": 469656,
      "componentType": 5125,
      "count": 108393,
      "type": "SCALAR"
    }
  ],
  "asset": {
    "extras": {
      "author": "Ahmad Riazi (https://sketchfab.com/ahmadriazi)",
      "license": "CC-BY-4.0 (http://creativecommons.org/licenses/by/4.0/)",
      "source": "https://sketchfab.com/3d-models/zara-t-shirt-15e8757908094027ad8352b890942979",
      "title": "Zara T_shirt"
    },
    "generator": "Sketchfab-15.37.0",
    "version": "2.0"
  },
  "bufferViews": [
    {
      "buffer": 0,
      "byteLength": 903228,
      "name": "floatBufferViews",
      "target": 34963
    },
    {
      "buffer": 0,
      "byteLength": 231960,
      "byteOffset": 903228,
      "byteStride": 8,
      "name": "floatBufferViews",
      "target": 34962
    },
    {
      "buffer": 0,
      "byteLength": 949704,
      "byteOffset": 1135188,
      "byteStride": 12,
      "name": "floatBufferViews",
      "target": 34962
    }
  ],
  "buffers": [
    {
      "byteLength": 2084892,
      "uri": "scene.bin"
    }
  ],
  "images": [
    { "uri": "textures/shirt.png" },
    { "uri": "textures/pants.png" } 
  ],
  "materials": [
    {
      "doubleSided": true,
      "name": "material_0",
      "pbrMetallicRoughness": {
        "metallicFactor": 0.0,
        "roughnessFactor": 0.6
      }
    },
    {
      "doubleSided": true,
      "name": "Material.001",
      "pbrMetallicRoughness": {
        "baseColorFactor": [
          0.8,
          0.8,
          0.8,
          1.0
        ],
        "metallicFactor": 0.0,
        "roughnessFactor": 0.2
      }
    },
    {
      "doubleSided": true,
      "name": "Material.002",
      "pbrMetallicRoughness": {
        "baseColorTexture": {
          "index": 0
        },
        "metallicFactor": 0.0
      }
    },
    {
      "name": "Material.003",
      "pbrMetallicRoughness": { "baseColorTexture": { "index": 1 }}
    }
  ],
  "meshes": [
    {
      "name": "Object_0",
      "primitives": [
        {
          "attributes": {
            "NORMAL": 1,
            "POSITION": 0
          },
          "indices": 2,
          "material": 1,
          "mode": 4
        }
      ]
    },
    {
      "name": "Object_1",
      "primitives": [
        {
          "attributes": {
            "NORMAL": 4,
            "POSITION": 3,
            "TEXCOORD_0": 5
          },
          "indices": 6,
          "material": 0,
          "mode": 4
        }
      ]
    },
    {
      "name": "Object_2",
      "primitives": [
        {
          "attributes": {
            "NORMAL": 8,
            "POSITION": 7,
            "TEXCOORD_0": 9
          },
          "indices": 10,
          "material": 0,
          "mode": 4
        }
      ]
    },
    {
      "name": "Object_3",
      "primitives": [
        {
          "attributes": {
            "NORMAL": 12,
            "POSITION": 11,
            "TEXCOORD_0": 13
          },
          "indices": 14,
          "material": 2,
          "mode": 4
        }
      ]
    }
  ],
  "nodes": [
    {
      "children": [
        1
      ],
      "matrix": [
        1.0,
        0.0,
        0.0,
        0.0,
        0.0,
        2.220446049250313e-16,
        -1.0,
        0.0,
        0.0,
        1.0,
        2.220446049250313e-16,
        0.0,
        0.0,
        0.0,
        0.0,
        1.0
      ],
      "name": "Sketchfab_model"
    },
    {
      "children": [
        2
      ],
      "name": "root"
    },
    {
      "children": [
        3
      ],
      "matrix": [
        1.0,
        0.0,
        0.0,
        0.0,
        0.0,
        2.220446049250313e-16,
        1.0,
        0.0,
        0.0,
        -1.0,
        2.220446049250313e-16,
        0.0,
        0.0,
        0.0,
        0.0,
        1.0
      ],
      "name": "GLTF_SceneRootNode"
    },
    {
      "children": [
        4,
        6,
        8,
        10
      ],
      "matrix": [
        0.0010000000474974513,
        0.0,
        0.0,
        0.0,
        0.0,
        0.0,
        0.0010000000474974513,
        0.0,
        0.0,
        -0.0010000000474974513,
        0.0,
        0.0,
        0.0,
        0.0,
        0.0,
        1.0
      ],
      "name": "Default_4"
    },
    {
      "children": [
        5
      ],
      "name": "body_3_0"
    },
    {
      "mesh": 0,
      "name": "Object_5"
    },
    {
      "children": [
        7
      ],
      "name": "shoes_l_Shape_1"
    },
    {
      "mesh": 1,
      "name": "Object_7"
    },
    {
      "children": [
        9
      ],
      "name": "shoes_r_Shape_2"
    },
    {
      "mesh": 2,
      "name": "Object_9"
    },
    {
      "children": [
        11
      ],
      "name": "tshirt_3"
    },
    {
      "mesh": 3,
      "name": "Object_11"
    }
  ],
  "samplers": [
    {
      "magFilter": 9729,
      "minFilter": 9987,
      "wrapS": 10497,
      "wrapT": 10497
    }
  ],
  "scene": 0,
  "scenes": [
    {
      "name": "Sketchfab_Scene",
      "nodes": [
        0
      ]
    }
  ],
  "textures": [
    { "sampler": 0, "source": 0 },
    { "sampler": 0, "source": 1 } 
  ]
}
